<svg width="188" height="107" viewBox="0 0 188 107" fill="none" xmlns="http://www.w3.org/2000/svg">
<rect x="0.683594" y="40.9392" width="56.0818" height="66.0518" rx="10" fill="#3662E3"/>
<rect x="11.2773" y="52.7788" width="34.8953" height="3.73878" rx="1.86939" fill="white"/>
<rect x="11.2773" y="65.2413" width="34.8953" height="3.73878" rx="1.86939" fill="white"/>
<rect x="11.2773" y="77.7038" width="34.8953" height="3.73878" rx="1.86939" fill="white"/>
<rect x="11.2773" y="90.1663" width="20.5633" height="3.73878" rx="1.86939" fill="white"/>
<ellipse cx="155.823" cy="53.459" rx="14.8898" ry="14.8544" fill="#3662E3"/>
<path d="M125.051 99.9153C125.051 86.1082 136.244 74.9153 150.051 74.9153H162.919C176.726 74.9153 187.919 86.1082 187.919 99.9153V106.605H125.051V99.9153Z" fill="#3662E3"/>
<rect x="71" y="65" width="31" height="14" fill="#3662E3"/>
<path d="M116 72L98 85.8564V58.1436L116 72Z" fill="#3662E3"/>
<path d="M69.5521 27.2685C69.3681 26.7727 69.3681 26.2273 69.5521 25.7315C71.3446 21.3852 74.3873 17.669 78.2944 15.054C82.2015 12.439 86.7971 11.043 91.4985 11.043C96.2 11.043 100.796 12.439 104.703 15.054C108.61 17.669 111.652 21.3852 113.445 25.7315C113.629 26.2273 113.629 26.7727 113.445 27.2685C111.652 31.6148 108.61 35.331 104.703 37.946C100.796 40.561 96.2 41.957 91.4985 41.957C86.7971 41.957 82.2015 40.561 78.2944 37.946C74.3873 35.331 71.3446 31.6148 69.5521 27.2685Z" stroke="#3662E3" stroke-width="3" stroke-linecap="round" stroke-linejoin="round"/>
<path d="M91.5 33.125C95.1589 33.125 98.125 30.1589 98.125 26.5C98.125 22.8411 95.1589 19.875 91.5 19.875C87.8411 19.875 84.875 22.8411 84.875 26.5C84.875 30.1589 87.8411 33.125 91.5 33.125Z" stroke="#3662E3" stroke-width="3" stroke-linecap="round" stroke-linejoin="round"/>
<circle cx="91.5" cy="26.5" r="6.5" fill="#3662E3"/>
</svg>
