<svg width="90" height="106" viewBox="0 0 90 106" fill="none" xmlns="http://www.w3.org/2000/svg">
<rect width="90" height="106" rx="10" fill="#3662E3"/>
<rect x="17" y="19" width="56" height="6" rx="3" fill="white"/>
<rect x="17" y="39" width="56" height="6" rx="3" fill="white"/>
<rect x="17" y="59" width="56" height="6" rx="3" fill="white"/>
<rect x="17" y="79" width="33" height="6" rx="3" fill="white"/>
<circle cx="72" cy="80" r="9" fill="white"/>
<g clip-path="url(#clip0_272_608)">
<path d="M71.8015 75.9562C71.8198 75.9194 71.848 75.8883 71.883 75.8666C71.9179 75.8449 71.9583 75.8334 71.9994 75.8334C72.0406 75.8334 72.081 75.8449 72.1159 75.8666C72.1509 75.8883 72.1791 75.9194 72.1974 75.9562L73.1599 77.9058C73.2233 78.0341 73.3169 78.1452 73.4326 78.2294C73.5484 78.3135 73.6828 78.3684 73.8244 78.3892L75.9769 78.7042C76.0177 78.7101 76.0561 78.7273 76.0876 78.7538C76.1191 78.7804 76.1425 78.8152 76.1553 78.8544C76.168 78.8936 76.1696 78.9356 76.1597 78.9756C76.1498 79.0156 76.129 79.0521 76.0994 79.0808L74.5428 80.5967C74.4401 80.6967 74.3633 80.8202 74.319 80.9565C74.2746 81.0928 74.2641 81.2379 74.2882 81.3792L74.6557 83.5208C74.6629 83.5616 74.6585 83.6036 74.643 83.6419C74.6275 83.6803 74.6015 83.7136 74.568 83.7379C74.5345 83.7622 74.4949 83.7767 74.4536 83.7795C74.4123 83.7824 74.371 83.7736 74.3344 83.7542L72.4103 82.7425C72.2835 82.6759 72.1424 82.6411 71.9992 82.6411C71.856 82.6411 71.715 82.6759 71.5882 82.7425L69.6644 83.7542C69.6279 83.7735 69.5867 83.7822 69.5455 83.7793C69.5042 83.7763 69.4647 83.7619 69.4312 83.7376C69.3978 83.7133 69.3719 83.6801 69.3564 83.6418C69.3409 83.6034 69.3365 83.5615 69.3436 83.5208L69.7107 81.3796C69.7349 81.2382 69.7244 81.0931 69.6801 80.9567C69.6357 80.8203 69.5589 80.6967 69.4561 80.5967L67.8994 79.0812C67.8697 79.0525 67.8486 79.016 67.8386 78.9759C67.8286 78.9357 67.83 78.8936 67.8428 78.8542C67.8556 78.8149 67.8791 78.7799 67.9108 78.7533C67.9425 78.7267 67.981 78.7095 68.0219 78.7037L70.174 78.3892C70.3158 78.3685 70.4504 78.3138 70.5664 78.2296C70.6823 78.1454 70.776 78.0343 70.8394 77.9058L71.8015 75.9562Z" stroke="#3662E3" stroke-width="1.33333" stroke-linecap="round" stroke-linejoin="round"/>
<path d="M71.9469 76.882L72.4453 77.882L75.5 79L74 81V83L72 82L70 83V81L68.5 79L71.4453 77.882L71.9469 76.882Z" fill="#3662E3"/>
</g>
<path d="M71.1829 84.1579C71.5813 83.5933 72.4187 83.5933 72.8171 84.1579L80.4138 94.9234C80.8812 95.5859 80.4075 96.5 79.5967 96.5H64.4033C63.5925 96.5 63.1188 95.5859 63.5862 94.9234L71.1829 84.1579Z" fill="white"/>
<defs>
<clipPath id="clip0_272_608">
<rect width="10" height="10" fill="white" transform="translate(67 75)"/>
</clipPath>
</defs>
</svg>
