<svg width="186" height="147" viewBox="0 0 186 147" fill="none" xmlns="http://www.w3.org/2000/svg">
<rect width="185.672" height="18.7988" fill="#3662E3"/>
<rect x="8.44141" y="24.2818" width="170.328" height="18.7988" fill="#3662E3"/>
<rect x="8.44141" y="97.1272" width="170.328" height="39.9475" fill="#3662E3"/>
<rect x="14.5781" y="137.075" width="19.9483" height="9.39941" fill="#3662E3"/>
<rect x="152.684" y="137.075" width="19.9483" height="9.39941" fill="#3662E3"/>
<rect x="14.5781" y="4.69971" width="6.90517" height="100.26" fill="#3662E3"/>
<rect x="165.723" y="4.69971" width="6.90517" height="100.26" fill="#3662E3"/>
<ellipse cx="138.49" cy="63.0543" rx="8.05603" ry="8.22448" fill="#3662E3"/>
<path d="M124.293 83.6287C124.293 78.1058 128.77 73.6287 134.293 73.6287H142.681C148.204 73.6287 152.681 78.1058 152.681 83.6287V95.5606H124.293V83.6287Z" fill="#3662E3"/>
<path d="M130.277 56C130.277 51.5817 133.859 48 138.277 48H138.929C143.347 48 146.929 51.5817 146.929 56H130.277Z" fill="#3662E3"/>
<path d="M124.398 57.5C124.398 56.6716 125.07 56 125.898 56H146.927V59H125.898C125.07 59 124.398 58.3284 124.398 57.5Z" fill="#3662E3"/>
<rect width="6.7639" height="10.8952" rx="3.38195" transform="matrix(0.820606 0.571494 -0.555579 0.831464 112.695 79.895)" fill="#3662E3"/>
<rect width="6.7639" height="10.8952" rx="3.38195" transform="matrix(0.820606 0.571494 -0.555579 0.831464 81.2383 79.895)" fill="#3662E3"/>
<rect width="6.7639" height="10.8952" rx="3.38195" transform="matrix(0.820606 0.571494 -0.555579 0.831464 91.2148 79.895)" fill="#3662E3"/>
<rect width="6.7639" height="10.8952" rx="3.38195" transform="matrix(0.820606 0.571494 -0.555579 0.831464 101.957 79.895)" fill="#3662E3"/>
<rect x="74.418" y="87.7278" width="42.9655" height="4.6997" fill="#3662E3"/>
<rect x="76.7227" y="90.8609" width="38.3621" height="4.6997" fill="#3662E3"/>
<rect x="24.5547" y="87.7278" width="42.9655" height="4.6997" fill="#3662E3"/>
<rect x="26.8516" y="90.8609" width="38.3621" height="4.6997" fill="#3662E3"/>
<ellipse cx="32.2229" cy="83.0281" rx="3.83621" ry="3.91642" fill="#3662E3"/>
<ellipse cx="36.8245" cy="75.1953" rx="3.83621" ry="3.91642" fill="#3662E3"/>
<ellipse cx="46.0354" cy="75.1953" rx="3.83621" ry="3.91642" fill="#3662E3"/>
<ellipse cx="55.2425" cy="75.1953" rx="3.83621" ry="3.91642" fill="#3662E3"/>
<ellipse cx="50.637" cy="67.3624" rx="3.83621" ry="3.91642" fill="#3662E3"/>
<ellipse cx="46.0354" cy="59.5296" rx="3.83621" ry="3.91642" fill="#3662E3"/>
<ellipse cx="41.4339" cy="67.3624" rx="3.83621" ry="3.91642" fill="#3662E3"/>
<ellipse cx="41.4339" cy="83.0281" rx="3.83621" ry="3.91642" fill="#3662E3"/>
<ellipse cx="50.637" cy="83.0281" rx="3.83621" ry="3.91642" fill="#3662E3"/>
<ellipse cx="59.844" cy="83.0281" rx="3.83621" ry="3.91642" fill="#3662E3"/>
</svg>
