<svg width="136" height="125" viewBox="0 0 136 125" fill="none" xmlns="http://www.w3.org/2000/svg">
<rect width="90" height="106" rx="10" fill="#3662E3"/>
<rect x="17" y="19" width="56" height="6" rx="3" fill="white"/>
<rect x="17" y="39" width="56" height="6" rx="3" fill="white"/>
<rect x="17" y="59" width="56" height="6" rx="3" fill="white"/>
<rect x="17" y="79" width="33" height="6" rx="3" fill="white"/>
<rect x="64.1854" y="80.0938" width="41.9703" height="20.4851" transform="rotate(-40.5191 64.1854 80.0938)" fill="#3662E3" stroke="white"/>
<rect x="91.2089" y="85.2594" width="7.59405" height="31.2277" transform="rotate(-40.5191 91.2089 85.2594)" fill="#3662E3" stroke="white"/>
<rect x="95.4549" y="50.5451" width="4.37128" height="24.7822" transform="rotate(-40.5191 95.4549 50.5451)" fill="#3662E3" stroke="white"/>
<rect x="58.7049" y="81.9526" width="4.37128" height="24.7822" transform="rotate(-40.5191 58.7049 81.9526)" fill="#3662E3" stroke="white"/>
<rect x="80.6894" y="118.498" width="35" height="15" transform="rotate(-156.221 80.6894 118.498)" fill="#3662E3" stroke="white"/>
<circle cx="67.4092" cy="104.428" r="5" transform="rotate(-156.221 67.4092 104.428)" fill="white"/>
<path d="M65.6693 105.478C65.5887 105.724 65.6084 105.952 65.7282 106.161C65.8481 106.369 66.0601 106.541 66.3643 106.675C66.571 106.766 66.7584 106.814 66.9265 106.818C67.0937 106.824 67.2377 106.793 67.3584 106.725C67.4772 106.656 67.5649 106.558 67.6216 106.429C67.6728 106.324 67.6916 106.22 67.6781 106.119C67.6626 106.016 67.6239 105.917 67.5619 105.819C67.4991 105.724 67.4196 105.63 67.3235 105.536C67.2265 105.445 67.1191 105.355 67.0013 105.269L66.5199 104.903C66.2844 104.729 66.0789 104.546 65.9035 104.352C65.7281 104.158 65.5918 103.955 65.4946 103.742C65.3975 103.529 65.3475 103.307 65.3448 103.075C65.3402 102.843 65.3919 102.601 65.4999 102.351C65.6634 101.985 65.897 101.709 66.2008 101.521C66.5018 101.335 66.8584 101.244 67.2708 101.249C67.6803 101.255 68.1288 101.365 68.6163 101.58C69.0998 101.793 69.4883 102.052 69.7818 102.359C70.0733 102.664 70.2555 103.006 70.3283 103.385C70.3983 103.765 70.3433 104.173 70.1632 104.608L68.9377 104.068C69.0126 103.861 69.0289 103.668 68.9868 103.489C68.9419 103.311 68.8487 103.15 68.7072 103.006C68.5628 102.863 68.3815 102.744 68.1631 102.648C67.9486 102.553 67.7487 102.502 67.5633 102.495C67.3759 102.487 67.2138 102.519 67.0771 102.592C66.9404 102.664 66.8403 102.773 66.7767 102.917C66.7174 103.052 66.7076 103.182 66.7471 103.309C66.7848 103.435 66.8654 103.564 66.9892 103.695C67.1109 103.826 67.2694 103.965 67.4646 104.114L68.0447 104.565C68.4955 104.911 68.8096 105.278 68.987 105.669C69.1643 106.059 69.1545 106.475 68.9576 106.916C68.7997 107.28 68.5636 107.554 68.2492 107.739C67.9329 107.924 67.5696 108.016 67.1594 108.017C66.7493 108.018 66.3258 107.922 65.889 107.73C65.4445 107.534 65.09 107.287 64.8255 106.989C64.5591 106.69 64.393 106.364 64.3272 106.011C64.2614 105.659 64.3041 105.303 64.4555 104.943L65.6693 105.478Z" fill="#3662E3"/>
<rect x="66.7148" y="108.492" width="0.5" height="7.5" transform="rotate(-156.221 66.7148 108.492)" fill="#3662E3"/>
<rect x="65.7969" y="108.089" width="0.5" height="7.5" transform="rotate(-156.221 65.7969 108.089)" fill="#3662E3"/>
</svg>
